<?xml version="1.0" encoding="utf-8" standalone="no"?>
<!DOCTYPE svg PUBLIC "-//W3C//DTD SVG 1.1//EN"
  "http://www.w3.org/Graphics/SVG/1.1/DTD/svg11.dtd">
<!-- Created with matplotlib (https://matplotlib.org/) -->
<svg height="288pt" version="1.1" viewBox="0 0 432 288" width="432pt" xmlns="http://www.w3.org/2000/svg" xmlns:xlink="http://www.w3.org/1999/xlink">
 <metadata>
  <rdf:RDF xmlns:cc="http://creativecommons.org/ns#" xmlns:dc="http://purl.org/dc/elements/1.1/" xmlns:rdf="http://www.w3.org/1999/02/22-rdf-syntax-ns#">
   <cc:Work>
    <dc:type rdf:resource="http://purl.org/dc/dcmitype/StillImage"/>
    <dc:date>2021-05-22T16:04:33.754823</dc:date>
    <dc:format>image/svg+xml</dc:format>
    <dc:creator>
     <cc:Agent>
      <dc:title>Matplotlib v3.3.1, https://matplotlib.org/</dc:title>
     </cc:Agent>
    </dc:creator>
   </cc:Work>
  </rdf:RDF>
 </metadata>
 <defs>
  <style type="text/css">*{stroke-linecap:butt;stroke-linejoin:round;}</style>
 </defs>
 <g id="figure_1">
  <g id="patch_1">
   <path d="M 0 288 
L 432 288 
L 432 0 
L 0 0 
z
" style="fill:#ffffff;"/>
  </g>
  <g id="axes_1">
   <g id="patch_2">
    <path d="M 54 252 
L 388.8 252 
L 388.8 34.56 
L 54 34.56 
z
" style="fill:#ffffff;"/>
   </g>
   <g id="PathCollection_1">
    <path clip-path="url(#p6b534a8c06)" d="M 329.017256 71.61947 
C 329.679107 71.61947 330.31394 71.356514 330.78194 70.888514 
C 331.24994 70.420515 331.512896 69.785682 331.512896 69.12383 
C 331.512896 68.461979 331.24994 67.827146 330.78194 67.359146 
C 330.31394 66.891147 329.679107 66.62819 329.017256 66.62819 
C 328.355404 66.62819 327.720572 66.891147 327.252572 67.359146 
C 326.784572 67.827146 326.521616 68.461979 326.521616 69.12383 
C 326.521616 69.785682 326.784572 70.420515 327.252572 70.888514 
C 327.720572 71.356514 328.355404 71.61947 329.017256 71.61947 
z
" style="fill:#fde725;stroke:#fde725;"/>
    <path clip-path="url(#p6b534a8c06)" d="M 274.312008 48.261717 
C 275.324575 48.261717 276.295806 47.85942 277.011799 47.143427 
C 277.727792 46.427434 278.130089 45.456203 278.130089 44.443636 
C 278.130089 43.431069 277.727792 42.459838 277.011799 41.743845 
C 276.295806 41.027852 275.324575 40.625555 274.312008 40.625555 
C 273.299441 40.625555 272.32821 41.027852 271.612217 41.743845 
C 270.896224 42.459838 270.493927 43.431069 270.493927 44.443636 
C 270.493927 45.456203 270.896224 46.427434 271.612217 47.143427 
C 272.32821 47.85942 273.299441 48.261717 274.312008 48.261717 
z
" style="fill:#3b518b;stroke:#3b518b;"/>
    <path clip-path="url(#p6b534a8c06)" d="M 306.230359 97.644773 
C 308.097251 97.644773 309.887932 96.903049 311.208024 95.582956 
C 312.528117 94.262864 313.269841 92.472183 313.269841 90.605291 
C 313.269841 88.738398 312.528117 86.947717 311.208024 85.627625 
C 309.887932 84.307533 308.097251 83.565808 306.230359 83.565808 
C 304.363466 83.565808 302.572785 84.307533 301.252693 85.627625 
C 299.932601 86.947717 299.190876 88.738398 299.190876 90.605291 
C 299.190876 92.472183 299.932601 94.262864 301.252693 95.582956 
C 302.572785 96.903049 304.363466 97.644773 306.230359 97.644773 
z
" style="fill:#433d84;stroke:#433d84;"/>
    <path clip-path="url(#p6b534a8c06)" d="M 292.079522 158.835107 
C 292.436794 158.835107 292.77948 158.693162 293.03211 158.440532 
C 293.284739 158.187903 293.426684 157.845216 293.426684 157.487945 
C 293.426684 157.130673 293.284739 156.787986 293.03211 156.535357 
C 292.77948 156.282728 292.436794 156.140782 292.079522 156.140782 
C 291.72225 156.140782 291.379563 156.282728 291.126934 156.535357 
C 290.874305 156.787986 290.732359 157.130673 290.732359 157.487945 
C 290.732359 157.845216 290.874305 158.187903 291.126934 158.440532 
C 291.379563 158.693162 291.72225 158.835107 292.079522 158.835107 
z
" style="fill:#d2e21b;stroke:#d2e21b;"/>
    <path clip-path="url(#p6b534a8c06)" d="M 173.205555 69.138111 
C 174.531329 69.138111 175.80298 68.611375 176.740444 67.673912 
C 177.677907 66.736448 178.204643 65.464797 178.204643 64.139023 
C 178.204643 62.81325 177.677907 61.541598 176.740444 60.604134 
C 175.80298 59.666671 174.531329 59.139936 173.205555 59.139936 
C 171.879782 59.139936 170.60813 59.666671 169.670666 60.604134 
C 168.733203 61.541598 168.206468 62.81325 168.206468 64.139023 
C 168.206468 65.464797 168.733203 66.736448 169.670666 67.673912 
C 170.60813 68.611375 171.879782 69.138111 173.205555 69.138111 
z
" style="fill:#2c728e;stroke:#2c728e;"/>
    <path clip-path="url(#p6b534a8c06)" d="M 267.159584 151.241263 
C 268.401561 151.241263 269.592838 150.747821 270.471048 149.86961 
C 271.349259 148.9914 271.842701 147.800123 271.842701 146.558146 
C 271.842701 145.316169 271.349259 144.124893 270.471048 143.246682 
C 269.592838 142.368472 268.401561 141.875029 267.159584 141.875029 
C 265.917607 141.875029 264.726331 142.368472 263.84812 143.246682 
C 262.96991 144.124893 262.476467 145.316169 262.476467 146.558146 
C 262.476467 147.800123 262.96991 148.9914 263.84812 149.86961 
C 264.726331 150.747821 265.917607 151.241263 267.159584 151.241263 
z
" style="fill:#450559;stroke:#450559;"/>
    <path clip-path="url(#p6b534a8c06)" d="M 373.581818 101.40262 
C 374.02072 101.40262 374.441705 101.228243 374.752056 100.917892 
C 375.062407 100.607541 375.236785 100.186556 375.236785 99.747654 
C 375.236785 99.308752 375.062407 98.887766 374.752056 98.577416 
C 374.441705 98.267065 374.02072 98.092687 373.581818 98.092687 
C 373.142916 98.092687 372.721931 98.267065 372.41158 98.577416 
C 372.101229 98.887766 371.926852 99.308752 371.926852 99.747654 
C 371.926852 100.186556 372.101229 100.607541 372.41158 100.917892 
C 372.721931 101.228243 373.142916 101.40262 373.581818 101.40262 
z
" style="fill:#2fb47c;stroke:#2fb47c;"/>
    <path clip-path="url(#p6b534a8c06)" d="M 228.38845 133.165614 
C 229.80547 133.165614 231.164644 132.602626 232.166629 131.600641 
C 233.168614 130.598656 233.731602 129.239483 233.731602 127.822462 
C 233.731602 126.405442 233.168614 125.046268 232.166629 124.044283 
C 231.164644 123.042298 229.80547 122.47931 228.38845 122.47931 
C 226.97143 122.47931 225.612256 123.042298 224.610271 124.044283 
C 223.608286 125.046268 223.045298 126.405442 223.045298 127.822462 
C 223.045298 129.239483 223.608286 130.598656 224.610271 131.600641 
C 225.612256 132.602626 226.97143 133.165614 228.38845 133.165614 
z
" style="fill:#440154;stroke:#440154;"/>
    <path clip-path="url(#p6b534a8c06)" d="M 147.753915 105.260037 
C 149.263675 105.260037 150.711804 104.660202 151.779366 103.59264 
C 152.846928 102.525078 153.446763 101.07695 153.446763 99.567189 
C 153.446763 98.057428 152.846928 96.609299 151.779366 95.541737 
C 150.711804 94.474175 149.263675 93.87434 147.753915 93.87434 
C 146.244154 93.87434 144.796025 94.474175 143.728463 95.541737 
C 142.660901 96.609299 142.061066 98.057428 142.061066 99.567189 
C 142.061066 101.07695 142.660901 102.525078 143.728463 103.59264 
C 144.796025 104.660202 146.244154 105.260037 147.753915 105.260037 
z
" style="fill:#23a983;stroke:#23a983;"/>
    <path clip-path="url(#p6b534a8c06)" d="M 247.641023 141.077694 
C 249.342748 141.077694 250.975005 140.401591 252.178307 139.198289 
C 253.381609 137.994987 254.057711 136.362731 254.057711 134.661005 
C 254.057711 132.959279 253.381609 131.327023 252.178307 130.123721 
C 250.975005 128.920419 249.342748 128.244316 247.641023 128.244316 
C 245.939297 128.244316 244.30704 128.920419 243.103739 130.123721 
C 241.900437 131.327023 241.224334 132.959279 241.224334 134.661005 
C 241.224334 136.362731 241.900437 137.994987 243.103739 139.198289 
C 244.30704 140.401591 245.939297 141.077694 247.641023 141.077694 
z
" style="fill:#470e61;stroke:#470e61;"/>
    <path clip-path="url(#p6b534a8c06)" d="M 203.07347 207.655744 
C 203.776664 207.655744 204.451152 207.376362 204.948385 206.879129 
C 205.445618 206.381895 205.725 205.707408 205.725 205.004214 
C 205.725 204.30102 205.445618 203.626532 204.948385 203.129299 
C 204.451152 202.632065 203.776664 202.352683 203.07347 202.352683 
C 202.370276 202.352683 201.695788 202.632065 201.198555 203.129299 
C 200.701322 203.626532 200.42194 204.30102 200.42194 205.004214 
C 200.42194 205.707408 200.701322 206.381895 201.198555 206.879129 
C 201.695788 207.376362 202.370276 207.655744 203.07347 207.655744 
z
" style="fill:#404688;stroke:#404688;"/>
    <path clip-path="url(#p6b534a8c06)" d="M 206.476314 188.493741 
C 207.409618 188.493741 208.304821 188.122935 208.964767 187.46299 
C 209.624712 186.803044 209.995518 185.907841 209.995518 184.974537 
C 209.995518 184.041233 209.624712 183.14603 208.964767 182.486084 
C 208.304821 181.826139 207.409618 181.455334 206.476314 181.455334 
C 205.54301 181.455334 204.647807 181.826139 203.987861 182.486084 
C 203.327916 183.14603 202.95711 184.041233 202.95711 184.974537 
C 202.95711 185.907841 203.327916 186.803044 203.987861 187.46299 
C 204.647807 188.122935 205.54301 188.493741 206.476314 188.493741 
z
" style="fill:#6ece58;stroke:#6ece58;"/>
    <path clip-path="url(#p6b534a8c06)" d="M 240.892474 55.954864 
C 242.482613 55.954864 244.007839 55.323095 245.132237 54.198696 
C 246.256635 53.074298 246.888405 51.549073 246.888405 49.958933 
C 246.888405 48.368794 246.256635 46.843568 245.132237 45.71917 
C 244.007839 44.594772 242.482613 43.963003 240.892474 43.963003 
C 239.302335 43.963003 237.777109 44.594772 236.652711 45.71917 
C 235.528312 46.843568 234.896543 48.368794 234.896543 49.958933 
C 234.896543 51.549073 235.528312 53.074298 236.652711 54.198696 
C 237.777109 55.323095 239.302335 55.954864 240.892474 55.954864 
z
" style="fill:#f1e51d;stroke:#f1e51d;"/>
    <path clip-path="url(#p6b534a8c06)" d="M 373.51565 211.070163 
C 375.029681 211.070163 376.481904 210.468632 377.552485 209.398051 
C 378.623067 208.32747 379.224597 206.875246 379.224597 205.361216 
C 379.224597 203.847186 378.623067 202.394962 377.552485 201.324381 
C 376.481904 200.2538 375.029681 199.652269 373.51565 199.652269 
C 372.00162 199.652269 370.549397 200.2538 369.478815 201.324381 
C 368.408234 202.394962 367.806704 203.847186 367.806704 205.361216 
C 367.806704 206.875246 368.408234 208.32747 369.478815 209.398051 
C 370.549397 210.468632 372.00162 211.070163 373.51565 211.070163 
z
" style="fill:#297b8e;stroke:#297b8e;"/>
    <path clip-path="url(#p6b534a8c06)" d="M 257.701695 146.779987 
C 258.696473 146.779987 259.650641 146.384757 260.354054 145.681343 
C 261.057468 144.97793 261.452698 144.023762 261.452698 143.028984 
C 261.452698 142.034207 261.057468 141.080039 260.354054 140.376625 
C 259.650641 139.673211 258.696473 139.277982 257.701695 139.277982 
C 256.706918 139.277982 255.75275 139.673211 255.049336 140.376625 
C 254.345922 141.080039 253.950693 142.034207 253.950693 143.028984 
C 253.950693 144.023762 254.345922 144.97793 255.049336 145.681343 
C 255.75275 146.384757 256.706918 146.779987 257.701695 146.779987 
z
" style="fill:#26ad81;stroke:#26ad81;"/>
    <path clip-path="url(#p6b534a8c06)" d="M 195.968472 123.974195 
C 197.827661 123.974195 199.610953 123.235531 200.925598 121.920886 
C 202.240244 120.606241 202.978907 118.822949 202.978907 116.96376 
C 202.978907 115.104571 202.240244 113.321279 200.925598 112.006634 
C 199.610953 110.691988 197.827661 109.953325 195.968472 109.953325 
C 194.109283 109.953325 192.325991 110.691988 191.011346 112.006634 
C 189.6967 113.321279 188.958037 115.104571 188.958037 116.96376 
C 188.958037 118.822949 189.6967 120.606241 191.011346 121.920886 
C 192.325991 123.235531 194.109283 123.974195 195.968472 123.974195 
z
" style="fill:#46337f;stroke:#46337f;"/>
    <path clip-path="url(#p6b534a8c06)" d="M 69.218182 248.287961 
C 70.854909 248.287961 72.42482 247.637683 73.58216 246.480342 
C 74.739501 245.323001 75.389779 243.75309 75.389779 242.116364 
C 75.389779 240.479637 74.739501 238.909726 73.58216 237.752385 
C 72.42482 236.595045 70.854909 235.944766 69.218182 235.944766 
C 67.581455 235.944766 66.011544 236.595045 64.854203 237.752385 
C 63.696863 238.909726 63.046584 240.479637 63.046584 242.116364 
C 63.046584 243.75309 63.696863 245.323001 64.854203 246.480342 
C 66.011544 247.637683 67.581455 248.287961 69.218182 248.287961 
z
" style="fill:#d2e21b;stroke:#d2e21b;"/>
    <path clip-path="url(#p6b534a8c06)" d="M 186.787556 184.422356 
C 187.845231 184.422356 188.859729 184.002137 189.607619 183.254247 
C 190.355508 182.506358 190.775727 181.49186 190.775727 180.434184 
C 190.775727 179.376509 190.355508 178.362011 189.607619 177.614121 
C 188.859729 176.866232 187.845231 176.446013 186.787556 176.446013 
C 185.72988 176.446013 184.715382 176.866232 183.967492 177.614121 
C 183.219603 178.362011 182.799384 179.376509 182.799384 180.434184 
C 182.799384 181.49186 183.219603 182.506358 183.967492 183.254247 
C 184.715382 184.002137 185.72988 184.422356 186.787556 184.422356 
z
" style="fill:#414487;stroke:#414487;"/>
    <path clip-path="url(#p6b534a8c06)" d="M 112.027718 58.828774 
C 113.847587 58.828774 115.593164 58.105733 116.880006 56.818891 
C 118.166848 55.532049 118.88989 53.786471 118.88989 51.966602 
C 118.88989 50.146733 118.166848 48.401155 116.880006 47.114313 
C 115.593164 45.827471 113.847587 45.10443 112.027718 45.10443 
C 110.207848 45.10443 108.462271 45.827471 107.175429 47.114313 
C 105.888587 48.401155 105.165545 50.146733 105.165545 51.966602 
C 105.165545 53.786471 105.888587 55.532049 107.175429 56.818891 
C 108.462271 58.105733 110.207848 58.828774 112.027718 58.828774 
z
" style="fill:#b2dd2d;stroke:#b2dd2d;"/>
    <path clip-path="url(#p6b534a8c06)" d="M 365.137576 141.93575 
C 366.723272 141.93575 368.244235 141.305746 369.36549 140.18449 
C 370.486746 139.063234 371.11675 137.542271 371.11675 135.956576 
C 371.11675 134.370881 370.486746 132.849918 369.36549 131.728662 
C 368.244235 130.607406 366.723272 129.977402 365.137576 129.977402 
C 363.551881 129.977402 362.030918 130.607406 360.909662 131.728662 
C 359.788406 132.849918 359.158403 134.370881 359.158403 135.956576 
C 359.158403 137.542271 359.788406 139.063234 360.909662 140.18449 
C 362.030918 141.305746 363.551881 141.93575 365.137576 141.93575 
z
" style="fill:#3d4d8a;stroke:#3d4d8a;"/>
   </g>
   <g id="matplotlib.axis_1">
    <g id="xtick_1">
     <g id="line2d_1">
      <defs>
       <path d="M 0 0 
L 0 3.5 
" id="m9244e9e258" style="stroke:#000000;stroke-width:0.8;"/>
      </defs>
      <g>
       <use style="stroke:#000000;stroke-width:0.8;" x="64.194578" xlink:href="#m9244e9e258" y="252"/>
      </g>
     </g>
     <g id="text_1">
      <!-- 0.0 -->
      <g transform="translate(56.243015 266.598437)scale(0.1 -0.1)">
       <defs>
        <path d="M 31.78125 66.40625 
Q 24.171875 66.40625 20.328125 58.90625 
Q 16.5 51.421875 16.5 36.375 
Q 16.5 21.390625 20.328125 13.890625 
Q 24.171875 6.390625 31.78125 6.390625 
Q 39.453125 6.390625 43.28125 13.890625 
Q 47.125 21.390625 47.125 36.375 
Q 47.125 51.421875 43.28125 58.90625 
Q 39.453125 66.40625 31.78125 66.40625 
z
M 31.78125 74.21875 
Q 44.046875 74.21875 50.515625 64.515625 
Q 56.984375 54.828125 56.984375 36.375 
Q 56.984375 17.96875 50.515625 8.265625 
Q 44.046875 -1.421875 31.78125 -1.421875 
Q 19.53125 -1.421875 13.0625 8.265625 
Q 6.59375 17.96875 6.59375 36.375 
Q 6.59375 54.828125 13.0625 64.515625 
Q 19.53125 74.21875 31.78125 74.21875 
z
" id="DejaVuSans-48"/>
        <path d="M 10.6875 12.40625 
L 21 12.40625 
L 21 0 
L 10.6875 0 
z
" id="DejaVuSans-46"/>
       </defs>
       <use xlink:href="#DejaVuSans-48"/>
       <use x="63.623047" xlink:href="#DejaVuSans-46"/>
       <use x="95.410156" xlink:href="#DejaVuSans-48"/>
      </g>
     </g>
    </g>
    <g id="xtick_2">
     <g id="line2d_2">
      <g>
       <use style="stroke:#000000;stroke-width:0.8;" x="127.800719" xlink:href="#m9244e9e258" y="252"/>
      </g>
     </g>
     <g id="text_2">
      <!-- 0.2 -->
      <g transform="translate(119.849156 266.598437)scale(0.1 -0.1)">
       <defs>
        <path d="M 19.1875 8.296875 
L 53.609375 8.296875 
L 53.609375 0 
L 7.328125 0 
L 7.328125 8.296875 
Q 12.9375 14.109375 22.625 23.890625 
Q 32.328125 33.6875 34.8125 36.53125 
Q 39.546875 41.84375 41.421875 45.53125 
Q 43.3125 49.21875 43.3125 52.78125 
Q 43.3125 58.59375 39.234375 62.25 
Q 35.15625 65.921875 28.609375 65.921875 
Q 23.96875 65.921875 18.8125 64.3125 
Q 13.671875 62.703125 7.8125 59.421875 
L 7.8125 69.390625 
Q 13.765625 71.78125 18.9375 73 
Q 24.125 74.21875 28.421875 74.21875 
Q 39.75 74.21875 46.484375 68.546875 
Q 53.21875 62.890625 53.21875 53.421875 
Q 53.21875 48.921875 51.53125 44.890625 
Q 49.859375 40.875 45.40625 35.40625 
Q 44.1875 33.984375 37.640625 27.21875 
Q 31.109375 20.453125 19.1875 8.296875 
z
" id="DejaVuSans-50"/>
       </defs>
       <use xlink:href="#DejaVuSans-48"/>
       <use x="63.623047" xlink:href="#DejaVuSans-46"/>
       <use x="95.410156" xlink:href="#DejaVuSans-50"/>
      </g>
     </g>
    </g>
    <g id="xtick_3">
     <g id="line2d_3">
      <g>
       <use style="stroke:#000000;stroke-width:0.8;" x="191.40686" xlink:href="#m9244e9e258" y="252"/>
      </g>
     </g>
     <g id="text_3">
      <!-- 0.4 -->
      <g transform="translate(183.455297 266.598437)scale(0.1 -0.1)">
       <defs>
        <path d="M 37.796875 64.3125 
L 12.890625 25.390625 
L 37.796875 25.390625 
z
M 35.203125 72.90625 
L 47.609375 72.90625 
L 47.609375 25.390625 
L 58.015625 25.390625 
L 58.015625 17.1875 
L 47.609375 17.1875 
L 47.609375 0 
L 37.796875 0 
L 37.796875 17.1875 
L 4.890625 17.1875 
L 4.890625 26.703125 
z
" id="DejaVuSans-52"/>
       </defs>
       <use xlink:href="#DejaVuSans-48"/>
       <use x="63.623047" xlink:href="#DejaVuSans-46"/>
       <use x="95.410156" xlink:href="#DejaVuSans-52"/>
      </g>
     </g>
    </g>
    <g id="xtick_4">
     <g id="line2d_4">
      <g>
       <use style="stroke:#000000;stroke-width:0.8;" x="255.013001" xlink:href="#m9244e9e258" y="252"/>
      </g>
     </g>
     <g id="text_4">
      <!-- 0.6 -->
      <g transform="translate(247.061438 266.598437)scale(0.1 -0.1)">
       <defs>
        <path d="M 33.015625 40.375 
Q 26.375 40.375 22.484375 35.828125 
Q 18.609375 31.296875 18.609375 23.390625 
Q 18.609375 15.53125 22.484375 10.953125 
Q 26.375 6.390625 33.015625 6.390625 
Q 39.65625 6.390625 43.53125 10.953125 
Q 47.40625 15.53125 47.40625 23.390625 
Q 47.40625 31.296875 43.53125 35.828125 
Q 39.65625 40.375 33.015625 40.375 
z
M 52.59375 71.296875 
L 52.59375 62.3125 
Q 48.875 64.0625 45.09375 64.984375 
Q 41.3125 65.921875 37.59375 65.921875 
Q 27.828125 65.921875 22.671875 59.328125 
Q 17.53125 52.734375 16.796875 39.40625 
Q 19.671875 43.65625 24.015625 45.921875 
Q 28.375 48.1875 33.59375 48.1875 
Q 44.578125 48.1875 50.953125 41.515625 
Q 57.328125 34.859375 57.328125 23.390625 
Q 57.328125 12.15625 50.6875 5.359375 
Q 44.046875 -1.421875 33.015625 -1.421875 
Q 20.359375 -1.421875 13.671875 8.265625 
Q 6.984375 17.96875 6.984375 36.375 
Q 6.984375 53.65625 15.1875 63.9375 
Q 23.390625 74.21875 37.203125 74.21875 
Q 40.921875 74.21875 44.703125 73.484375 
Q 48.484375 72.75 52.59375 71.296875 
z
" id="DejaVuSans-54"/>
       </defs>
       <use xlink:href="#DejaVuSans-48"/>
       <use x="63.623047" xlink:href="#DejaVuSans-46"/>
       <use x="95.410156" xlink:href="#DejaVuSans-54"/>
      </g>
     </g>
    </g>
    <g id="xtick_5">
     <g id="line2d_5">
      <g>
       <use style="stroke:#000000;stroke-width:0.8;" x="318.619141" xlink:href="#m9244e9e258" y="252"/>
      </g>
     </g>
     <g id="text_5">
      <!-- 0.8 -->
      <g transform="translate(310.667579 266.598437)scale(0.1 -0.1)">
       <defs>
        <path d="M 31.78125 34.625 
Q 24.75 34.625 20.71875 30.859375 
Q 16.703125 27.09375 16.703125 20.515625 
Q 16.703125 13.921875 20.71875 10.15625 
Q 24.75 6.390625 31.78125 6.390625 
Q 38.8125 6.390625 42.859375 10.171875 
Q 46.921875 13.96875 46.921875 20.515625 
Q 46.921875 27.09375 42.890625 30.859375 
Q 38.875 34.625 31.78125 34.625 
z
M 21.921875 38.8125 
Q 15.578125 40.375 12.03125 44.71875 
Q 8.5 49.078125 8.5 55.328125 
Q 8.5 64.0625 14.71875 69.140625 
Q 20.953125 74.21875 31.78125 74.21875 
Q 42.671875 74.21875 48.875 69.140625 
Q 55.078125 64.0625 55.078125 55.328125 
Q 55.078125 49.078125 51.53125 44.71875 
Q 48 40.375 41.703125 38.8125 
Q 48.828125 37.15625 52.796875 32.3125 
Q 56.78125 27.484375 56.78125 20.515625 
Q 56.78125 9.90625 50.3125 4.234375 
Q 43.84375 -1.421875 31.78125 -1.421875 
Q 19.734375 -1.421875 13.25 4.234375 
Q 6.78125 9.90625 6.78125 20.515625 
Q 6.78125 27.484375 10.78125 32.3125 
Q 14.796875 37.15625 21.921875 38.8125 
z
M 18.3125 54.390625 
Q 18.3125 48.734375 21.84375 45.5625 
Q 25.390625 42.390625 31.78125 42.390625 
Q 38.140625 42.390625 41.71875 45.5625 
Q 45.3125 48.734375 45.3125 54.390625 
Q 45.3125 60.0625 41.71875 63.234375 
Q 38.140625 66.40625 31.78125 66.40625 
Q 25.390625 66.40625 21.84375 63.234375 
Q 18.3125 60.0625 18.3125 54.390625 
z
" id="DejaVuSans-56"/>
       </defs>
       <use xlink:href="#DejaVuSans-48"/>
       <use x="63.623047" xlink:href="#DejaVuSans-46"/>
       <use x="95.410156" xlink:href="#DejaVuSans-56"/>
      </g>
     </g>
    </g>
    <g id="xtick_6">
     <g id="line2d_6">
      <g>
       <use style="stroke:#000000;stroke-width:0.8;" x="382.225282" xlink:href="#m9244e9e258" y="252"/>
      </g>
     </g>
     <g id="text_6">
      <!-- 1.0 -->
      <g transform="translate(374.27372 266.598437)scale(0.1 -0.1)">
       <defs>
        <path d="M 12.40625 8.296875 
L 28.515625 8.296875 
L 28.515625 63.921875 
L 10.984375 60.40625 
L 10.984375 69.390625 
L 28.421875 72.90625 
L 38.28125 72.90625 
L 38.28125 8.296875 
L 54.390625 8.296875 
L 54.390625 0 
L 12.40625 0 
z
" id="DejaVuSans-49"/>
       </defs>
       <use xlink:href="#DejaVuSans-49"/>
       <use x="63.623047" xlink:href="#DejaVuSans-46"/>
       <use x="95.410156" xlink:href="#DejaVuSans-48"/>
      </g>
     </g>
    </g>
   </g>
   <g id="matplotlib.axis_2">
    <g id="ytick_1">
     <g id="line2d_7">
      <defs>
       <path d="M 0 0 
L -3.5 0 
" id="m918856dd7e" style="stroke:#000000;stroke-width:0.8;"/>
      </defs>
      <g>
       <use style="stroke:#000000;stroke-width:0.8;" x="54" xlink:href="#m918856dd7e" y="251.073115"/>
      </g>
     </g>
     <g id="text_7">
      <!-- 0.0 -->
      <g transform="translate(31.096875 254.872334)scale(0.1 -0.1)">
       <use xlink:href="#DejaVuSans-48"/>
       <use x="63.623047" xlink:href="#DejaVuSans-46"/>
       <use x="95.410156" xlink:href="#DejaVuSans-48"/>
      </g>
     </g>
    </g>
    <g id="ytick_2">
     <g id="line2d_8">
      <g>
       <use style="stroke:#000000;stroke-width:0.8;" x="54" xlink:href="#m918856dd7e" y="208.541128"/>
      </g>
     </g>
     <g id="text_8">
      <!-- 0.2 -->
      <g transform="translate(31.096875 212.340347)scale(0.1 -0.1)">
       <use xlink:href="#DejaVuSans-48"/>
       <use x="63.623047" xlink:href="#DejaVuSans-46"/>
       <use x="95.410156" xlink:href="#DejaVuSans-50"/>
      </g>
     </g>
    </g>
    <g id="ytick_3">
     <g id="line2d_9">
      <g>
       <use style="stroke:#000000;stroke-width:0.8;" x="54" xlink:href="#m918856dd7e" y="166.00914"/>
      </g>
     </g>
     <g id="text_9">
      <!-- 0.4 -->
      <g transform="translate(31.096875 169.808359)scale(0.1 -0.1)">
       <use xlink:href="#DejaVuSans-48"/>
       <use x="63.623047" xlink:href="#DejaVuSans-46"/>
       <use x="95.410156" xlink:href="#DejaVuSans-52"/>
      </g>
     </g>
    </g>
    <g id="ytick_4">
     <g id="line2d_10">
      <g>
       <use style="stroke:#000000;stroke-width:0.8;" x="54" xlink:href="#m918856dd7e" y="123.477152"/>
      </g>
     </g>
     <g id="text_10">
      <!-- 0.6 -->
      <g transform="translate(31.096875 127.276371)scale(0.1 -0.1)">
       <use xlink:href="#DejaVuSans-48"/>
       <use x="63.623047" xlink:href="#DejaVuSans-46"/>
       <use x="95.410156" xlink:href="#DejaVuSans-54"/>
      </g>
     </g>
    </g>
    <g id="ytick_5">
     <g id="line2d_11">
      <g>
       <use style="stroke:#000000;stroke-width:0.8;" x="54" xlink:href="#m918856dd7e" y="80.945165"/>
      </g>
     </g>
     <g id="text_11">
      <!-- 0.8 -->
      <g transform="translate(31.096875 84.744383)scale(0.1 -0.1)">
       <use xlink:href="#DejaVuSans-48"/>
       <use x="63.623047" xlink:href="#DejaVuSans-46"/>
       <use x="95.410156" xlink:href="#DejaVuSans-56"/>
      </g>
     </g>
    </g>
    <g id="ytick_6">
     <g id="line2d_12">
      <g>
       <use style="stroke:#000000;stroke-width:0.8;" x="54" xlink:href="#m918856dd7e" y="38.413177"/>
      </g>
     </g>
     <g id="text_12">
      <!-- 1.0 -->
      <g transform="translate(31.096875 42.212396)scale(0.1 -0.1)">
       <use xlink:href="#DejaVuSans-49"/>
       <use x="63.623047" xlink:href="#DejaVuSans-46"/>
       <use x="95.410156" xlink:href="#DejaVuSans-48"/>
      </g>
     </g>
    </g>
   </g>
   <g id="patch_3">
    <path d="M 54 252 
L 54 34.56 
" style="fill:none;stroke:#000000;stroke-linecap:square;stroke-linejoin:miter;stroke-width:0.8;"/>
   </g>
   <g id="patch_4">
    <path d="M 388.8 252 
L 388.8 34.56 
" style="fill:none;stroke:#000000;stroke-linecap:square;stroke-linejoin:miter;stroke-width:0.8;"/>
   </g>
   <g id="patch_5">
    <path d="M 54 252 
L 388.8 252 
" style="fill:none;stroke:#000000;stroke-linecap:square;stroke-linejoin:miter;stroke-width:0.8;"/>
   </g>
   <g id="patch_6">
    <path d="M 54 34.56 
L 388.8 34.56 
" style="fill:none;stroke:#000000;stroke-linecap:square;stroke-linejoin:miter;stroke-width:0.8;"/>
   </g>
  </g>
 </g>
 <defs>
  <clipPath id="p6b534a8c06">
   <rect height="217.44" width="334.8" x="54" y="34.56"/>
  </clipPath>
 </defs>
</svg>
