<?xml version="1.0" encoding="utf-8" standalone="no"?>
<!DOCTYPE svg PUBLIC "-//W3C//DTD SVG 1.1//EN"
  "http://www.w3.org/Graphics/SVG/1.1/DTD/svg11.dtd">
<!-- Created with matplotlib (https://matplotlib.org/) -->
<svg height="288pt" version="1.1" viewBox="0 0 432 288" width="432pt" xmlns="http://www.w3.org/2000/svg" xmlns:xlink="http://www.w3.org/1999/xlink">
 <metadata>
  <rdf:RDF xmlns:cc="http://creativecommons.org/ns#" xmlns:dc="http://purl.org/dc/elements/1.1/" xmlns:rdf="http://www.w3.org/1999/02/22-rdf-syntax-ns#">
   <cc:Work>
    <dc:type rdf:resource="http://purl.org/dc/dcmitype/StillImage"/>
    <dc:date>2021-05-15T14:50:49.464023</dc:date>
    <dc:format>image/svg+xml</dc:format>
    <dc:creator>
     <cc:Agent>
      <dc:title>Matplotlib v3.3.1, https://matplotlib.org/</dc:title>
     </cc:Agent>
    </dc:creator>
   </cc:Work>
  </rdf:RDF>
 </metadata>
 <defs>
  <style type="text/css">*{stroke-linecap:butt;stroke-linejoin:round;}</style>
 </defs>
 <g id="figure_1">
  <g id="patch_1">
   <path d="M 0 288 
L 432 288 
L 432 0 
L 0 0 
z
" style="fill:#ffffff;"/>
  </g>
  <g id="axes_1">
   <g id="patch_2">
    <path d="M 54 252 
L 388.8 252 
L 388.8 34.56 
L 54 34.56 
z
" style="fill:#ffffff;"/>
   </g>
   <g id="PathCollection_1">
    <path clip-path="url(#paa41bfec06)" d="M 284.766826 164.169207 
C 286.63336 164.169207 288.423697 163.427625 289.743537 162.107786 
C 291.063376 160.787947 291.804958 158.997609 291.804958 157.131075 
C 291.804958 155.26454 291.063376 153.474203 289.743537 152.154364 
C 288.423697 150.834525 286.63336 150.092943 284.766826 150.092943 
C 282.900291 150.092943 281.109954 150.834525 279.790115 152.154364 
C 278.470275 153.474203 277.728693 155.26454 277.728693 157.131075 
C 277.728693 158.997609 278.470275 160.787947 279.790115 162.107786 
C 281.109954 163.427625 282.900291 164.169207 284.766826 164.169207 
z
" style="fill:#297b8e;stroke:#297b8e;"/>
    <path clip-path="url(#paa41bfec06)" d="M 326.205842 117.121765 
C 327.231265 117.121765 328.214827 116.71436 328.93991 115.989277 
C 329.664993 115.264194 330.072398 114.280632 330.072398 113.255209 
C 330.072398 112.229786 329.664993 111.246225 328.93991 110.521141 
C 328.214827 109.796058 327.231265 109.388653 326.205842 109.388653 
C 325.18042 109.388653 324.196858 109.796058 323.471775 110.521141 
C 322.746691 111.246225 322.339287 112.229786 322.339287 113.255209 
C 322.339287 114.280632 322.746691 115.264194 323.471775 115.989277 
C 324.196858 116.71436 325.18042 117.121765 326.205842 117.121765 
z
" style="fill:#38b977;stroke:#38b977;"/>
    <path clip-path="url(#paa41bfec06)" d="M 265.881916 88.442607 
C 267.407395 88.442607 268.8706 87.836528 269.949276 86.757852 
C 271.027953 85.679175 271.634032 84.21597 271.634032 82.690492 
C 271.634032 81.165013 271.027953 79.701808 269.949276 78.623131 
C 268.8706 77.544455 267.407395 76.938376 265.881916 76.938376 
C 264.356437 76.938376 262.893233 77.544455 261.814556 78.623131 
C 260.735879 79.701808 260.1298 81.165013 260.1298 82.690492 
C 260.1298 84.21597 260.735879 85.679175 261.814556 86.757852 
C 262.893233 87.836528 264.356437 88.442607 265.881916 88.442607 
z
" style="fill:#25ac82;stroke:#25ac82;"/>
    <path clip-path="url(#paa41bfec06)" d="M 369.863127 220.896261 
C 370.819483 220.896261 371.736797 220.516297 372.413043 219.840052 
C 373.089288 219.163806 373.469252 218.246492 373.469252 217.290136 
C 373.469252 216.33378 373.089288 215.416466 372.413043 214.74022 
C 371.736797 214.063975 370.819483 213.684011 369.863127 213.684011 
C 368.906771 213.684011 367.989457 214.063975 367.313211 214.74022 
C 366.636966 215.416466 366.257002 216.33378 366.257002 217.290136 
C 366.257002 218.246492 366.636966 219.163806 367.313211 219.840052 
C 367.989457 220.516297 368.906771 220.896261 369.863127 220.896261 
z
" style="fill:#eae51a;stroke:#eae51a;"/>
    <path clip-path="url(#paa41bfec06)" d="M 339.793276 82.44784 
C 341.544491 82.44784 343.224216 81.752075 344.462511 80.513779 
C 345.700807 79.275483 346.396572 77.595758 346.396572 75.844544 
C 346.396572 74.093329 345.700807 72.413604 344.462511 71.175309 
C 343.224216 69.937013 341.544491 69.241248 339.793276 69.241248 
C 338.042062 69.241248 336.362337 69.937013 335.124041 71.175309 
C 333.885745 72.413604 333.18998 74.093329 333.18998 75.844544 
C 333.18998 77.595758 333.885745 79.275483 335.124041 80.513779 
C 336.362337 81.752075 338.042062 82.44784 339.793276 82.44784 
z
" style="fill:#86d549;stroke:#86d549;"/>
    <path clip-path="url(#paa41bfec06)" d="M 155.696019 236.940292 
C 157.268764 236.940292 158.777304 236.315434 159.889402 235.203335 
C 161.001501 234.091237 161.626359 232.582697 161.626359 231.009952 
C 161.626359 229.437208 161.001501 227.928667 159.889402 226.816569 
C 158.777304 225.704471 157.268764 225.079613 155.696019 225.079613 
C 154.123275 225.079613 152.614734 225.704471 151.502636 226.816569 
C 150.390538 227.928667 149.76568 229.437208 149.76568 231.009952 
C 149.76568 232.582697 150.390538 234.091237 151.502636 235.203335 
C 152.614734 236.315434 154.123275 236.940292 155.696019 236.940292 
z
" style="fill:#1f9a8a;stroke:#1f9a8a;"/>
    <path clip-path="url(#paa41bfec06)" d="M 69.218182 189.315844 
C 70.772896 189.315844 72.264142 188.69815 73.363491 187.598801 
C 74.46284 186.499452 75.080534 185.008206 75.080534 183.453492 
C 75.080534 181.898778 74.46284 180.407532 73.363491 179.308183 
C 72.264142 178.208834 70.772896 177.591139 69.218182 177.591139 
C 67.663468 177.591139 66.172222 178.208834 65.072873 179.308183 
C 63.973524 180.407532 63.355829 181.898778 63.355829 183.453492 
C 63.355829 185.008206 63.973524 186.499452 65.072873 187.598801 
C 66.172222 188.69815 67.663468 189.315844 69.218182 189.315844 
z
" style="fill:#21a585;stroke:#21a585;"/>
    <path clip-path="url(#paa41bfec06)" d="M 277.12768 68.426634 
C 277.548779 68.426634 277.952688 68.259329 278.25045 67.961567 
C 278.548213 67.663804 278.715517 67.259896 278.715517 66.838796 
C 278.715517 66.417697 278.548213 66.013788 278.25045 65.716025 
C 277.952688 65.418263 277.548779 65.250959 277.12768 65.250959 
C 276.70658 65.250959 276.302671 65.418263 276.004909 65.716025 
C 275.707147 66.013788 275.539842 66.417697 275.539842 66.838796 
C 275.539842 67.259896 275.707147 67.663804 276.004909 67.961567 
C 276.302671 68.259329 276.70658 68.426634 277.12768 68.426634 
z
" style="fill:#f8e621;stroke:#f8e621;"/>
    <path clip-path="url(#paa41bfec06)" d="M 190.158759 111.638031 
C 191.523951 111.638031 192.833412 111.095635 193.798748 110.130298 
C 194.764085 109.164961 195.306482 107.8555 195.306482 106.490308 
C 195.306482 105.125116 194.764085 103.815655 193.798748 102.850318 
C 192.833412 101.884982 191.523951 101.342585 190.158759 101.342585 
C 188.793566 101.342585 187.484105 101.884982 186.518769 102.850318 
C 185.553432 103.815655 185.011035 105.125116 185.011035 106.490308 
C 185.011035 107.8555 185.553432 109.164961 186.518769 110.130298 
C 187.484105 111.095635 188.793566 111.638031 190.158759 111.638031 
z
" style="fill:#28ae80;stroke:#28ae80;"/>
    <path clip-path="url(#paa41bfec06)" d="M 237.320583 219.85355 
C 238.510254 219.85355 239.651359 219.380888 240.492584 218.539664 
C 241.333809 217.698439 241.80647 216.557334 241.80647 215.367662 
C 241.80647 214.177991 241.333809 213.036885 240.492584 212.195661 
C 239.651359 211.354436 238.510254 210.881775 237.320583 210.881775 
C 236.130911 210.881775 234.989806 211.354436 234.148581 212.195661 
C 233.307356 213.036885 232.834695 214.177991 232.834695 215.367662 
C 232.834695 216.557334 233.307356 217.698439 234.148581 218.539664 
C 234.989806 219.380888 236.130911 219.85355 237.320583 219.85355 
z
" style="fill:#2b758e;stroke:#2b758e;"/>
    <path clip-path="url(#paa41bfec06)" d="M 169.55895 226.81078 
C 170.775738 226.81078 171.942853 226.327345 172.803252 225.466946 
C 173.663651 224.606547 174.147086 223.439432 174.147086 222.222644 
C 174.147086 221.005856 173.663651 219.838741 172.803252 218.978342 
C 171.942853 218.117944 170.775738 217.634509 169.55895 217.634509 
C 168.342162 217.634509 167.175047 218.117944 166.314648 218.978342 
C 165.454249 219.838741 164.970814 221.005856 164.970814 222.222644 
C 164.970814 223.439432 165.454249 224.606547 166.314648 225.466946 
C 167.175047 226.327345 168.342162 226.81078 169.55895 226.81078 
z
" style="fill:#39568c;stroke:#39568c;"/>
    <path clip-path="url(#paa41bfec06)" d="M 311.202702 154.324257 
C 311.641707 154.324257 312.06279 154.149839 312.373213 153.839416 
C 312.683637 153.528992 312.858055 153.107909 312.858055 152.668904 
C 312.858055 152.229899 312.683637 151.808816 312.373213 151.498392 
C 312.06279 151.187969 311.641707 151.013551 311.202702 151.013551 
C 310.763697 151.013551 310.342613 151.187969 310.03219 151.498392 
C 309.721767 151.808816 309.547348 152.229899 309.547348 152.668904 
C 309.547348 153.107909 309.721767 153.528992 310.03219 153.839416 
C 310.342613 154.149839 310.763697 154.324257 311.202702 154.324257 
z
" style="fill:#1f9e89;stroke:#1f9e89;"/>
    <path clip-path="url(#paa41bfec06)" d="M 299.242124 71.581486 
C 300.818349 71.581486 302.330227 70.955246 303.444786 69.840687 
C 304.559344 68.726129 305.185585 67.21425 305.185585 65.638026 
C 305.185585 64.061802 304.559344 62.549924 303.444786 61.435365 
C 302.330227 60.320806 300.818349 59.694566 299.242124 59.694566 
C 297.6659 59.694566 296.154022 60.320806 295.039463 61.435365 
C 293.924905 62.549924 293.298664 64.061802 293.298664 65.638026 
C 293.298664 67.21425 293.924905 68.726129 295.039463 69.840687 
C 296.154022 70.955246 297.6659 71.581486 299.242124 71.581486 
z
" style="fill:#440154;stroke:#440154;"/>
    <path clip-path="url(#paa41bfec06)" d="M 373.581818 70.729556 
C 374.390599 70.729556 375.166362 70.408224 375.738257 69.83633 
C 376.310151 69.264436 376.631483 68.488672 376.631483 67.679891 
C 376.631483 66.871111 376.310151 66.095347 375.738257 65.523453 
C 375.166362 64.951559 374.390599 64.630227 373.581818 64.630227 
C 372.773038 64.630227 371.997274 64.951559 371.42538 65.523453 
C 370.853486 66.095347 370.532154 66.871111 370.532154 67.679891 
C 370.532154 68.488672 370.853486 69.264436 371.42538 69.83633 
C 371.997274 70.408224 372.773038 70.729556 373.581818 70.729556 
z
" style="fill:#472e7c;stroke:#472e7c;"/>
    <path clip-path="url(#paa41bfec06)" d="M 200.068453 247.129262 
C 201.397889 247.129262 202.673054 246.601072 203.613108 245.661018 
C 204.553161 244.720965 205.081352 243.4458 205.081352 242.116364 
C 205.081352 240.786927 204.553161 239.511762 203.613108 238.571709 
C 202.673054 237.631656 201.397889 237.103465 200.068453 237.103465 
C 198.739017 237.103465 197.463852 237.631656 196.523799 238.571709 
C 195.583745 239.511762 195.055555 240.786927 195.055555 242.116364 
C 195.055555 243.4458 195.583745 244.720965 196.523799 245.661018 
C 197.463852 246.601072 198.739017 247.129262 200.068453 247.129262 
z
" style="fill:#fde725;stroke:#fde725;"/>
    <path clip-path="url(#paa41bfec06)" d="M 228.480188 100.842605 
C 230.085065 100.842605 231.624427 100.204981 232.759247 99.070161 
C 233.894067 97.935341 234.531692 96.395979 234.531692 94.791101 
C 234.531692 93.186224 233.894067 91.646862 232.759247 90.512042 
C 231.624427 89.377222 230.085065 88.739597 228.480188 88.739597 
C 226.87531 88.739597 225.335948 89.377222 224.201128 90.512042 
C 223.066308 91.646862 222.428684 93.186224 222.428684 94.791101 
C 222.428684 96.395979 223.066308 97.935341 224.201128 99.070161 
C 225.335948 100.204981 226.87531 100.842605 228.480188 100.842605 
z
" style="fill:#aadc32;stroke:#aadc32;"/>
    <path clip-path="url(#paa41bfec06)" d="M 277.43077 130.563914 
C 279.194795 130.563914 280.886808 129.86306 282.134163 128.615705 
C 283.381517 127.368351 284.082372 125.676338 284.082372 123.912313 
C 284.082372 122.148287 283.381517 120.456274 282.134163 119.20892 
C 280.886808 117.961566 279.194795 117.260711 277.43077 117.260711 
C 275.666745 117.260711 273.974732 117.961566 272.727377 119.20892 
C 271.480023 120.456274 270.779168 122.148287 270.779168 123.912313 
C 270.779168 125.676338 271.480023 127.368351 272.727377 128.615705 
C 273.974732 129.86306 275.666745 130.563914 277.43077 130.563914 
z
" style="fill:#d5e21a;stroke:#d5e21a;"/>
    <path clip-path="url(#paa41bfec06)" d="M 286.140876 47.763651 
C 287.021354 47.763651 287.865888 47.413833 288.48848 46.791241 
C 289.111073 46.168649 289.46089 45.324115 289.46089 44.443636 
C 289.46089 43.563158 289.111073 42.718624 288.48848 42.096032 
C 287.865888 41.473439 287.021354 41.123622 286.140876 41.123622 
C 285.260397 41.123622 284.415863 41.473439 283.793271 42.096032 
C 283.170679 42.718624 282.820861 43.563158 282.820861 44.443636 
C 282.820861 45.324115 283.170679 46.168649 283.793271 46.791241 
C 284.415863 47.413833 285.260397 47.763651 286.140876 47.763651 
z
" style="fill:#addc30;stroke:#addc30;"/>
    <path clip-path="url(#paa41bfec06)" d="M 214.802562 175.315238 
C 215.856653 175.315238 216.867713 174.896444 217.613068 174.151089 
C 218.358422 173.405734 218.777217 172.394675 218.777217 171.340584 
C 218.777217 170.286493 218.358422 169.275433 217.613068 168.530079 
C 216.867713 167.784724 215.856653 167.365929 214.802562 167.365929 
C 213.748472 167.365929 212.737412 167.784724 211.992057 168.530079 
C 211.246702 169.275433 210.827908 170.286493 210.827908 171.340584 
C 210.827908 172.394675 211.246702 173.405734 211.992057 174.151089 
C 212.737412 174.896444 213.748472 175.315238 214.802562 175.315238 
z
" style="fill:#3dbc74;stroke:#3dbc74;"/>
    <path clip-path="url(#paa41bfec06)" d="M 295.615557 59.430114 
C 297.077681 59.430114 298.480117 58.849206 299.513994 57.815328 
C 300.547872 56.781451 301.12878 55.379015 301.12878 53.916891 
C 301.12878 52.454767 300.547872 51.052332 299.513994 50.018454 
C 298.480117 48.984576 297.077681 48.403668 295.615557 48.403668 
C 294.153433 48.403668 292.750997 48.984576 291.71712 50.018454 
C 290.683242 51.052332 290.102334 52.454767 290.102334 53.916891 
C 290.102334 55.379015 290.683242 56.781451 291.71712 57.815328 
C 292.750997 58.849206 294.153433 59.430114 295.615557 59.430114 
z
" style="fill:#355f8d;stroke:#355f8d;"/>
   </g>
   <g id="matplotlib.axis_1">
    <g id="xtick_1">
     <g id="line2d_1">
      <defs>
       <path d="M 0 0 
L 0 3.5 
" id="mfdaed0b9e5" style="stroke:#000000;stroke-width:0.8;"/>
      </defs>
      <g>
       <use style="stroke:#000000;stroke-width:0.8;" x="62.930516" xlink:href="#mfdaed0b9e5" y="252"/>
      </g>
     </g>
     <g id="text_1">
      <!-- 0.1 -->
      <g transform="translate(54.978953 266.598437)scale(0.1 -0.1)">
       <defs>
        <path d="M 31.78125 66.40625 
Q 24.171875 66.40625 20.328125 58.90625 
Q 16.5 51.421875 16.5 36.375 
Q 16.5 21.390625 20.328125 13.890625 
Q 24.171875 6.390625 31.78125 6.390625 
Q 39.453125 6.390625 43.28125 13.890625 
Q 47.125 21.390625 47.125 36.375 
Q 47.125 51.421875 43.28125 58.90625 
Q 39.453125 66.40625 31.78125 66.40625 
z
M 31.78125 74.21875 
Q 44.046875 74.21875 50.515625 64.515625 
Q 56.984375 54.828125 56.984375 36.375 
Q 56.984375 17.96875 50.515625 8.265625 
Q 44.046875 -1.421875 31.78125 -1.421875 
Q 19.53125 -1.421875 13.0625 8.265625 
Q 6.59375 17.96875 6.59375 36.375 
Q 6.59375 54.828125 13.0625 64.515625 
Q 19.53125 74.21875 31.78125 74.21875 
z
" id="DejaVuSans-48"/>
        <path d="M 10.6875 12.40625 
L 21 12.40625 
L 21 0 
L 10.6875 0 
z
" id="DejaVuSans-46"/>
        <path d="M 12.40625 8.296875 
L 28.515625 8.296875 
L 28.515625 63.921875 
L 10.984375 60.40625 
L 10.984375 69.390625 
L 28.421875 72.90625 
L 38.28125 72.90625 
L 38.28125 8.296875 
L 54.390625 8.296875 
L 54.390625 0 
L 12.40625 0 
z
" id="DejaVuSans-49"/>
       </defs>
       <use xlink:href="#DejaVuSans-48"/>
       <use x="63.623047" xlink:href="#DejaVuSans-46"/>
       <use x="95.410156" xlink:href="#DejaVuSans-49"/>
      </g>
     </g>
    </g>
    <g id="xtick_2">
     <g id="line2d_2">
      <g>
       <use style="stroke:#000000;stroke-width:0.8;" x="102.419507" xlink:href="#mfdaed0b9e5" y="252"/>
      </g>
     </g>
     <g id="text_2">
      <!-- 0.2 -->
      <g transform="translate(94.467944 266.598437)scale(0.1 -0.1)">
       <defs>
        <path d="M 19.1875 8.296875 
L 53.609375 8.296875 
L 53.609375 0 
L 7.328125 0 
L 7.328125 8.296875 
Q 12.9375 14.109375 22.625 23.890625 
Q 32.328125 33.6875 34.8125 36.53125 
Q 39.546875 41.84375 41.421875 45.53125 
Q 43.3125 49.21875 43.3125 52.78125 
Q 43.3125 58.59375 39.234375 62.25 
Q 35.15625 65.921875 28.609375 65.921875 
Q 23.96875 65.921875 18.8125 64.3125 
Q 13.671875 62.703125 7.8125 59.421875 
L 7.8125 69.390625 
Q 13.765625 71.78125 18.9375 73 
Q 24.125 74.21875 28.421875 74.21875 
Q 39.75 74.21875 46.484375 68.546875 
Q 53.21875 62.890625 53.21875 53.421875 
Q 53.21875 48.921875 51.53125 44.890625 
Q 49.859375 40.875 45.40625 35.40625 
Q 44.1875 33.984375 37.640625 27.21875 
Q 31.109375 20.453125 19.1875 8.296875 
z
" id="DejaVuSans-50"/>
       </defs>
       <use xlink:href="#DejaVuSans-48"/>
       <use x="63.623047" xlink:href="#DejaVuSans-46"/>
       <use x="95.410156" xlink:href="#DejaVuSans-50"/>
      </g>
     </g>
    </g>
    <g id="xtick_3">
     <g id="line2d_3">
      <g>
       <use style="stroke:#000000;stroke-width:0.8;" x="141.908498" xlink:href="#mfdaed0b9e5" y="252"/>
      </g>
     </g>
     <g id="text_3">
      <!-- 0.3 -->
      <g transform="translate(133.956936 266.598437)scale(0.1 -0.1)">
       <defs>
        <path d="M 40.578125 39.3125 
Q 47.65625 37.796875 51.625 33 
Q 55.609375 28.21875 55.609375 21.1875 
Q 55.609375 10.40625 48.1875 4.484375 
Q 40.765625 -1.421875 27.09375 -1.421875 
Q 22.515625 -1.421875 17.65625 -0.515625 
Q 12.796875 0.390625 7.625 2.203125 
L 7.625 11.71875 
Q 11.71875 9.328125 16.59375 8.109375 
Q 21.484375 6.890625 26.8125 6.890625 
Q 36.078125 6.890625 40.9375 10.546875 
Q 45.796875 14.203125 45.796875 21.1875 
Q 45.796875 27.640625 41.28125 31.265625 
Q 36.765625 34.90625 28.71875 34.90625 
L 20.21875 34.90625 
L 20.21875 43.015625 
L 29.109375 43.015625 
Q 36.375 43.015625 40.234375 45.921875 
Q 44.09375 48.828125 44.09375 54.296875 
Q 44.09375 59.90625 40.109375 62.90625 
Q 36.140625 65.921875 28.71875 65.921875 
Q 24.65625 65.921875 20.015625 65.03125 
Q 15.375 64.15625 9.8125 62.3125 
L 9.8125 71.09375 
Q 15.4375 72.65625 20.34375 73.4375 
Q 25.25 74.21875 29.59375 74.21875 
Q 40.828125 74.21875 47.359375 69.109375 
Q 53.90625 64.015625 53.90625 55.328125 
Q 53.90625 49.265625 50.4375 45.09375 
Q 46.96875 40.921875 40.578125 39.3125 
z
" id="DejaVuSans-51"/>
       </defs>
       <use xlink:href="#DejaVuSans-48"/>
       <use x="63.623047" xlink:href="#DejaVuSans-46"/>
       <use x="95.410156" xlink:href="#DejaVuSans-51"/>
      </g>
     </g>
    </g>
    <g id="xtick_4">
     <g id="line2d_4">
      <g>
       <use style="stroke:#000000;stroke-width:0.8;" x="181.397489" xlink:href="#mfdaed0b9e5" y="252"/>
      </g>
     </g>
     <g id="text_4">
      <!-- 0.4 -->
      <g transform="translate(173.445927 266.598437)scale(0.1 -0.1)">
       <defs>
        <path d="M 37.796875 64.3125 
L 12.890625 25.390625 
L 37.796875 25.390625 
z
M 35.203125 72.90625 
L 47.609375 72.90625 
L 47.609375 25.390625 
L 58.015625 25.390625 
L 58.015625 17.1875 
L 47.609375 17.1875 
L 47.609375 0 
L 37.796875 0 
L 37.796875 17.1875 
L 4.890625 17.1875 
L 4.890625 26.703125 
z
" id="DejaVuSans-52"/>
       </defs>
       <use xlink:href="#DejaVuSans-48"/>
       <use x="63.623047" xlink:href="#DejaVuSans-46"/>
       <use x="95.410156" xlink:href="#DejaVuSans-52"/>
      </g>
     </g>
    </g>
    <g id="xtick_5">
     <g id="line2d_5">
      <g>
       <use style="stroke:#000000;stroke-width:0.8;" x="220.886481" xlink:href="#mfdaed0b9e5" y="252"/>
      </g>
     </g>
     <g id="text_5">
      <!-- 0.5 -->
      <g transform="translate(212.934918 266.598437)scale(0.1 -0.1)">
       <defs>
        <path d="M 10.796875 72.90625 
L 49.515625 72.90625 
L 49.515625 64.59375 
L 19.828125 64.59375 
L 19.828125 46.734375 
Q 21.96875 47.46875 24.109375 47.828125 
Q 26.265625 48.1875 28.421875 48.1875 
Q 40.625 48.1875 47.75 41.5 
Q 54.890625 34.8125 54.890625 23.390625 
Q 54.890625 11.625 47.5625 5.09375 
Q 40.234375 -1.421875 26.90625 -1.421875 
Q 22.3125 -1.421875 17.546875 -0.640625 
Q 12.796875 0.140625 7.71875 1.703125 
L 7.71875 11.625 
Q 12.109375 9.234375 16.796875 8.0625 
Q 21.484375 6.890625 26.703125 6.890625 
Q 35.15625 6.890625 40.078125 11.328125 
Q 45.015625 15.765625 45.015625 23.390625 
Q 45.015625 31 40.078125 35.4375 
Q 35.15625 39.890625 26.703125 39.890625 
Q 22.75 39.890625 18.8125 39.015625 
Q 14.890625 38.140625 10.796875 36.28125 
z
" id="DejaVuSans-53"/>
       </defs>
       <use xlink:href="#DejaVuSans-48"/>
       <use x="63.623047" xlink:href="#DejaVuSans-46"/>
       <use x="95.410156" xlink:href="#DejaVuSans-53"/>
      </g>
     </g>
    </g>
    <g id="xtick_6">
     <g id="line2d_6">
      <g>
       <use style="stroke:#000000;stroke-width:0.8;" x="260.375472" xlink:href="#mfdaed0b9e5" y="252"/>
      </g>
     </g>
     <g id="text_6">
      <!-- 0.6 -->
      <g transform="translate(252.423909 266.598437)scale(0.1 -0.1)">
       <defs>
        <path d="M 33.015625 40.375 
Q 26.375 40.375 22.484375 35.828125 
Q 18.609375 31.296875 18.609375 23.390625 
Q 18.609375 15.53125 22.484375 10.953125 
Q 26.375 6.390625 33.015625 6.390625 
Q 39.65625 6.390625 43.53125 10.953125 
Q 47.40625 15.53125 47.40625 23.390625 
Q 47.40625 31.296875 43.53125 35.828125 
Q 39.65625 40.375 33.015625 40.375 
z
M 52.59375 71.296875 
L 52.59375 62.3125 
Q 48.875 64.0625 45.09375 64.984375 
Q 41.3125 65.921875 37.59375 65.921875 
Q 27.828125 65.921875 22.671875 59.328125 
Q 17.53125 52.734375 16.796875 39.40625 
Q 19.671875 43.65625 24.015625 45.921875 
Q 28.375 48.1875 33.59375 48.1875 
Q 44.578125 48.1875 50.953125 41.515625 
Q 57.328125 34.859375 57.328125 23.390625 
Q 57.328125 12.15625 50.6875 5.359375 
Q 44.046875 -1.421875 33.015625 -1.421875 
Q 20.359375 -1.421875 13.671875 8.265625 
Q 6.984375 17.96875 6.984375 36.375 
Q 6.984375 53.65625 15.1875 63.9375 
Q 23.390625 74.21875 37.203125 74.21875 
Q 40.921875 74.21875 44.703125 73.484375 
Q 48.484375 72.75 52.59375 71.296875 
z
" id="DejaVuSans-54"/>
       </defs>
       <use xlink:href="#DejaVuSans-48"/>
       <use x="63.623047" xlink:href="#DejaVuSans-46"/>
       <use x="95.410156" xlink:href="#DejaVuSans-54"/>
      </g>
     </g>
    </g>
    <g id="xtick_7">
     <g id="line2d_7">
      <g>
       <use style="stroke:#000000;stroke-width:0.8;" x="299.864463" xlink:href="#mfdaed0b9e5" y="252"/>
      </g>
     </g>
     <g id="text_7">
      <!-- 0.7 -->
      <g transform="translate(291.9129 266.598437)scale(0.1 -0.1)">
       <defs>
        <path d="M 8.203125 72.90625 
L 55.078125 72.90625 
L 55.078125 68.703125 
L 28.609375 0 
L 18.3125 0 
L 43.21875 64.59375 
L 8.203125 64.59375 
z
" id="DejaVuSans-55"/>
       </defs>
       <use xlink:href="#DejaVuSans-48"/>
       <use x="63.623047" xlink:href="#DejaVuSans-46"/>
       <use x="95.410156" xlink:href="#DejaVuSans-55"/>
      </g>
     </g>
    </g>
    <g id="xtick_8">
     <g id="line2d_8">
      <g>
       <use style="stroke:#000000;stroke-width:0.8;" x="339.353454" xlink:href="#mfdaed0b9e5" y="252"/>
      </g>
     </g>
     <g id="text_8">
      <!-- 0.8 -->
      <g transform="translate(331.401892 266.598437)scale(0.1 -0.1)">
       <defs>
        <path d="M 31.78125 34.625 
Q 24.75 34.625 20.71875 30.859375 
Q 16.703125 27.09375 16.703125 20.515625 
Q 16.703125 13.921875 20.71875 10.15625 
Q 24.75 6.390625 31.78125 6.390625 
Q 38.8125 6.390625 42.859375 10.171875 
Q 46.921875 13.96875 46.921875 20.515625 
Q 46.921875 27.09375 42.890625 30.859375 
Q 38.875 34.625 31.78125 34.625 
z
M 21.921875 38.8125 
Q 15.578125 40.375 12.03125 44.71875 
Q 8.5 49.078125 8.5 55.328125 
Q 8.5 64.0625 14.71875 69.140625 
Q 20.953125 74.21875 31.78125 74.21875 
Q 42.671875 74.21875 48.875 69.140625 
Q 55.078125 64.0625 55.078125 55.328125 
Q 55.078125 49.078125 51.53125 44.71875 
Q 48 40.375 41.703125 38.8125 
Q 48.828125 37.15625 52.796875 32.3125 
Q 56.78125 27.484375 56.78125 20.515625 
Q 56.78125 9.90625 50.3125 4.234375 
Q 43.84375 -1.421875 31.78125 -1.421875 
Q 19.734375 -1.421875 13.25 4.234375 
Q 6.78125 9.90625 6.78125 20.515625 
Q 6.78125 27.484375 10.78125 32.3125 
Q 14.796875 37.15625 21.921875 38.8125 
z
M 18.3125 54.390625 
Q 18.3125 48.734375 21.84375 45.5625 
Q 25.390625 42.390625 31.78125 42.390625 
Q 38.140625 42.390625 41.71875 45.5625 
Q 45.3125 48.734375 45.3125 54.390625 
Q 45.3125 60.0625 41.71875 63.234375 
Q 38.140625 66.40625 31.78125 66.40625 
Q 25.390625 66.40625 21.84375 63.234375 
Q 18.3125 60.0625 18.3125 54.390625 
z
" id="DejaVuSans-56"/>
       </defs>
       <use xlink:href="#DejaVuSans-48"/>
       <use x="63.623047" xlink:href="#DejaVuSans-46"/>
       <use x="95.410156" xlink:href="#DejaVuSans-56"/>
      </g>
     </g>
    </g>
    <g id="xtick_9">
     <g id="line2d_9">
      <g>
       <use style="stroke:#000000;stroke-width:0.8;" x="378.842445" xlink:href="#mfdaed0b9e5" y="252"/>
      </g>
     </g>
     <g id="text_9">
      <!-- 0.9 -->
      <g transform="translate(370.890883 266.598437)scale(0.1 -0.1)">
       <defs>
        <path d="M 10.984375 1.515625 
L 10.984375 10.5 
Q 14.703125 8.734375 18.5 7.8125 
Q 22.3125 6.890625 25.984375 6.890625 
Q 35.75 6.890625 40.890625 13.453125 
Q 46.046875 20.015625 46.78125 33.40625 
Q 43.953125 29.203125 39.59375 26.953125 
Q 35.25 24.703125 29.984375 24.703125 
Q 19.046875 24.703125 12.671875 31.3125 
Q 6.296875 37.9375 6.296875 49.421875 
Q 6.296875 60.640625 12.9375 67.421875 
Q 19.578125 74.21875 30.609375 74.21875 
Q 43.265625 74.21875 49.921875 64.515625 
Q 56.59375 54.828125 56.59375 36.375 
Q 56.59375 19.140625 48.40625 8.859375 
Q 40.234375 -1.421875 26.421875 -1.421875 
Q 22.703125 -1.421875 18.890625 -0.6875 
Q 15.09375 0.046875 10.984375 1.515625 
z
M 30.609375 32.421875 
Q 37.25 32.421875 41.125 36.953125 
Q 45.015625 41.5 45.015625 49.421875 
Q 45.015625 57.28125 41.125 61.84375 
Q 37.25 66.40625 30.609375 66.40625 
Q 23.96875 66.40625 20.09375 61.84375 
Q 16.21875 57.28125 16.21875 49.421875 
Q 16.21875 41.5 20.09375 36.953125 
Q 23.96875 32.421875 30.609375 32.421875 
z
" id="DejaVuSans-57"/>
       </defs>
       <use xlink:href="#DejaVuSans-48"/>
       <use x="63.623047" xlink:href="#DejaVuSans-46"/>
       <use x="95.410156" xlink:href="#DejaVuSans-57"/>
      </g>
     </g>
    </g>
   </g>
   <g id="matplotlib.axis_2">
    <g id="ytick_1">
     <g id="line2d_10">
      <defs>
       <path d="M 0 0 
L -3.5 0 
" id="m48fae07f67" style="stroke:#000000;stroke-width:0.8;"/>
      </defs>
      <g>
       <use style="stroke:#000000;stroke-width:0.8;" x="54" xlink:href="#m48fae07f67" y="245.686347"/>
      </g>
     </g>
     <g id="text_10">
      <!-- 0.0 -->
      <g transform="translate(31.096875 249.485565)scale(0.1 -0.1)">
       <use xlink:href="#DejaVuSans-48"/>
       <use x="63.623047" xlink:href="#DejaVuSans-46"/>
       <use x="95.410156" xlink:href="#DejaVuSans-48"/>
      </g>
     </g>
    </g>
    <g id="ytick_2">
     <g id="line2d_11">
      <g>
       <use style="stroke:#000000;stroke-width:0.8;" x="54" xlink:href="#m48fae07f67" y="203.192343"/>
      </g>
     </g>
     <g id="text_11">
      <!-- 0.2 -->
      <g transform="translate(31.096875 206.991562)scale(0.1 -0.1)">
       <use xlink:href="#DejaVuSans-48"/>
       <use x="63.623047" xlink:href="#DejaVuSans-46"/>
       <use x="95.410156" xlink:href="#DejaVuSans-50"/>
      </g>
     </g>
    </g>
    <g id="ytick_3">
     <g id="line2d_12">
      <g>
       <use style="stroke:#000000;stroke-width:0.8;" x="54" xlink:href="#m48fae07f67" y="160.69834"/>
      </g>
     </g>
     <g id="text_12">
      <!-- 0.4 -->
      <g transform="translate(31.096875 164.497558)scale(0.1 -0.1)">
       <use xlink:href="#DejaVuSans-48"/>
       <use x="63.623047" xlink:href="#DejaVuSans-46"/>
       <use x="95.410156" xlink:href="#DejaVuSans-52"/>
      </g>
     </g>
    </g>
    <g id="ytick_4">
     <g id="line2d_13">
      <g>
       <use style="stroke:#000000;stroke-width:0.8;" x="54" xlink:href="#m48fae07f67" y="118.204336"/>
      </g>
     </g>
     <g id="text_13">
      <!-- 0.6 -->
      <g transform="translate(31.096875 122.003555)scale(0.1 -0.1)">
       <use xlink:href="#DejaVuSans-48"/>
       <use x="63.623047" xlink:href="#DejaVuSans-46"/>
       <use x="95.410156" xlink:href="#DejaVuSans-54"/>
      </g>
     </g>
    </g>
    <g id="ytick_5">
     <g id="line2d_14">
      <g>
       <use style="stroke:#000000;stroke-width:0.8;" x="54" xlink:href="#m48fae07f67" y="75.710333"/>
      </g>
     </g>
     <g id="text_14">
      <!-- 0.8 -->
      <g transform="translate(31.096875 79.509552)scale(0.1 -0.1)">
       <use xlink:href="#DejaVuSans-48"/>
       <use x="63.623047" xlink:href="#DejaVuSans-46"/>
       <use x="95.410156" xlink:href="#DejaVuSans-56"/>
      </g>
     </g>
    </g>
   </g>
   <g id="patch_3">
    <path d="M 54 252 
L 54 34.56 
" style="fill:none;stroke:#000000;stroke-linecap:square;stroke-linejoin:miter;stroke-width:0.8;"/>
   </g>
   <g id="patch_4">
    <path d="M 388.8 252 
L 388.8 34.56 
" style="fill:none;stroke:#000000;stroke-linecap:square;stroke-linejoin:miter;stroke-width:0.8;"/>
   </g>
   <g id="patch_5">
    <path d="M 54 252 
L 388.8 252 
" style="fill:none;stroke:#000000;stroke-linecap:square;stroke-linejoin:miter;stroke-width:0.8;"/>
   </g>
   <g id="patch_6">
    <path d="M 54 34.56 
L 388.8 34.56 
" style="fill:none;stroke:#000000;stroke-linecap:square;stroke-linejoin:miter;stroke-width:0.8;"/>
   </g>
  </g>
 </g>
 <defs>
  <clipPath id="paa41bfec06">
   <rect height="217.44" width="334.8" x="54" y="34.56"/>
  </clipPath>
 </defs>
</svg>
